PathFileType	4	(X/Y/Z)	/Users/mathieubourgeois/Desktop/Analyse/Traitement/Sujet_02/Data/Transformed_Sujet_02_velo_100.trc
DataRate	CameraRate	NumFrames	NumMarkers	Units	OrigDataRate	OrigDataStartFrame	OrigNumFrames
120.000000	120.000000	4	36	mm	120.000000	470	1882
Frame#	Time	RFHD			RANE			STRN			LANI			LKNE			T10			RHUM			RWRB			C7			LFWT			LTOE			RTOE			LWRA			LBWT			RBWT			RFWT			LKNI			RKNI			RKNE			LANE			RANI			LHEE			RHEE			LHUM			LRAD			RRAD			RWRA			LWRB			LFHD			LBHD			RBHD			RSHO			LSHO			CLAV			LCAR			RCAR			
		X1	Y1	Z1	X2	Y2	Z2	X3	Y3	Z3	X4	Y4	Z4	X5	Y5	Z5	X6	Y6	Z6	X7	Y7	Z7	X8	Y8	Z8	X9	Y9	Z9	X10	Y10	Z10	X11	Y11	Z11	X12	Y12	Z12	X13	Y13	Z13	X14	Y14	Z14	X15	Y15	Z15	X16	Y16	Z16	X17	Y17	Z17	X18	Y18	Z18	X19	Y19	Z19	X20	Y20	Z20	X21	Y21	Z21	X22	Y22	Z22	X23	Y23	Z23	X24	Y24	Z24	X25	Y25	Z25	X26	Y26	Z26	X27	Y27	Z27	X28	Y28	Z28	X29	Y29	Z29	X30	Y30	Z30	X31	Y31	Z31	X32	Y32	Z32	X33	Y33	Z33	X34	Y34	Z34	X35	Y35	Z35	X36	Y36	Z36	

471	3.916666666666667	70.94578552246092	1471.612915039062	127.0567169189452	-353.5199584960938	305.0982360839844	172.4533538818359	-204.8290863037109	1277.910400390625	22.15095520019521	-164.2899322509766	574.15673828125	-63.65221023559576	-44.52318191528319	975.478271484375	-124.5994949340821	-355.9158020019531	1514.441528320312	19.97834205627428	-61.47183227539065	1177.331298828125	220.8681488037109	174.8943634033203	1024.742065429688	161.2488708496093	-134.7315063476562	1564.965698242188	13.85154533386219	-396.8510437011719	1221.5654296875	-91.40380096435558	30.68456268310548	525.2421875	-125.4066162109375	-158.1556396484375	192.5370330810547	151.7482757568359	217.8721771240235	1045.97998046875	-161.4382629394532	-589.21826171875	1208.643432617188	-47.40597915649428	-590.1924438476562	1215.35205078125	74.3020858764647	-416.6912841796875	1229.310180664062	176.7299346923827	-3.894745826721189	950.316162109375	-18.6345005035401	-170.0289916992188	705.5260009765625	100.3839797973632	-219.867172241211	745.1175537109375	200.4165496826171	-189.1289672851562	565.1256103515625	-155.5963439941407	-322.0556030273438	316.2624816894531	86.50432586669916	-259.5060424804688	524.3573608398438	-114.5430984497071	-427.4330444335938	291.3321838378906	118.3242492675781	-29.44321632385252	1203.226318359375	-185.1788482666016	28.16934013366702	1242.303588867188	-211.4683837890626	-10.31322669982913	1222.54443359375	267.6990661621093	203.0099945068359	1053.791870117188	220.0070648193359	178.9058227539062	1022.912353515625	-101.6679458618164	81.417724609375	1429.596069335938	-25.42515945434578	1.749740600585944	1557.333740234375	-52.19805526733408	5.513892173767077	1585.474365234375	104.5820236206054	-112.7722930908203	1513.601440429688	164.306655883789	-99.54704284667967	1510.778442382812	-120.902069091797	-93.91187286376953	1417.0888671875	6.014274120330712	290.0255737304688	1041.35791015625	-72.84613800048831	293.4745483398438	1017.711181640625	143.9811401367187	
472	3.925	70.6956329345703	1471.62060546875	127.630012512207	-362.9172973632812	316.7041320800781	172.2933807373046	-205.239013671875	1277.738159179688	22.07036590576162	-155.6668853759766	561.085693359375	-64.01154327392582	-47.51287841796874	966.8794555664062	-124.7379531860352	-356.2029724121094	1514.480712890625	20.5992336273192	-61.419059753418	1177.077880859375	220.706558227539	175.7779693603515	1025.214111328125	160.7574768066406	-134.9122924804688	1564.694213867188	14.33762741088856	-397.2213134765625	1221.479858398438	-91.6732635498048	40.9452476501465	517.5733032226562	-125.6174774169922	-170.1137847900391	199.4016265869141	151.7777404785156	217.9675445556641	1046.03271484375	-161.2941436767578	-589.7587280273438	1208.503662109375	-47.02375030517592	-590.6767578125	1215.197265625	74.65607452392564	-417.0916442871094	1229.366455078125	176.7117614746092	-5.964196681976316	941.7048950195312	-19.72797012329107	-164.5874176025391	710.2357177734375	101.4001159667968	-214.0462646484375	750.21630859375	201.5472259521484	-180.2264099121093	551.4049682617188	-155.6459045410157	-330.8064575195312	326.8697204589844	86.4464492797851	-248.0138549804688	508.3584899902344	-114.6830368041993	-436.9478149414062	304.5357055664062	118.2370529174804	-29.32189369201658	1203.273071289062	-184.7329101562501	28.33041000366213	1242.463500976562	-210.9592590332032	-10.30631828308109	1222.27587890625	267.6582641601562	203.1005401611328	1053.596313476562	220.0946655273437	179.0030517578125	1022.931518554688	-101.5297317504883	81.36260223388672	1429.567504882812	-25.5580139160157	1.326144933700568	1557.12841796875	-52.13301467895517	5.326274871826159	1585.290893554688	104.6595611572265	-112.9171600341797	1513.283325195312	164.620880126953	-99.70092773437499	1510.673828125	-120.4835052490236	-94.02622222900391	1416.764038085938	6.324532508849999	290.2537231445312	1041.174072265625	-72.94453430175783	293.5149230957031	1017.724243164062	144.0146942138672	
473	3.933333333333333	70.4593048095703	1471.557006835938	128.2845306396484	-370.7023010253906	328.9364318847656	172.2712402343749	-205.6711883544922	1277.619018554688	21.98853683471669	-147.7040405273438	547.06689453125	-64.33830261230473	-50.56779098510741	956.7308959960938	-125.3734588623047	-356.4424133300781	1514.452026367188	21.2121486663817	-61.39468765258792	1176.861206054688	220.607437133789	175.4133758544922	1024.593383789062	161.0416259765625	-135.2007904052734	1564.502563476562	14.98346042633045	-397.8497619628906	1221.326782226562	-91.59164428710949	50.61695861816408	507.9735412597656	-125.7760696411133	-181.1811828613282	207.0899810791016	151.8593597412109	217.998519897461	1046.127563476562	-161.1587371826172	-590.250244140625	1208.307006835938	-46.71503067016616	-591.1805419921875	1215.037963867188	75.00113677978501	-417.4221801757812	1229.328125	176.6327514648436	-8.582827568054197	931.7898559570312	-20.88704299926763	-158.8101806640625	715.468017578125	102.3898925781249	-207.8272857666016	755.935302734375	202.6641845703124	-172.3904418945312	536.9332885742188	-155.9340057373047	-338.4812927246094	338.4973449707031	86.37846374511713	-236.0703430175781	491.3738098144531	-115.0832595825196	-445.2559814453125	318.8211669921875	118.0912857055663	-29.21473312377928	1203.4375	-184.1131439208985	28.40320587158206	1242.71923828125	-210.351043701172	-10.33437919616702	1222.064453125	267.6898193359374	202.8800964355468	1053.474975585938	220.2912139892578	179.0464935302734	1022.957336425781	-101.3954315185547	81.293212890625	1429.55078125	-25.61717987060555	0.9186263680458132	1556.97705078125	-51.95108795166025	5.191729545593249	1585.054809570312	104.8787841796874	-113.0430908203125	1513.04248046875	165.0225982666015	-99.88916015624999	1510.670166015625	-119.8926544189454	-94.1339111328125	1416.420532226562	6.658366203308007	290.289794921875	1041.117065429688	-72.84722137451173	293.5200805664062	1017.760986328125	144.0366058349609	
474	3.941666666666666	70.33287048339842	1471.504272460938	129.0194549560546	-377.3312377929688	342.2853393554688	172.2357940673827	-206.0162506103516	1277.552368164062	21.99288177490224	-142.4617309570312	532.101806640625	-65.51249694824223	-54.19793701171874	945.4981689453125	-126.0882186889649	-356.7074890136719	1514.395874023438	21.87357139587389	-61.39699172973636	1176.703002929688	220.6023864746093	175.362075805664	1024.3798828125	161.0941162109375	-135.5527496337891	1564.417236328125	15.7528429031371	-398.4007568359375	1221.27001953125	-91.62251281738293	58.82976150512697	497.3478393554688	-126.3785705566406	-191.2288818359375	215.5235900878906	151.9107360839843	217.9700164794922	1046.251708984375	-161.0279998779297	-591.4117431640625	1208.432983398438	-46.20708465576186	-591.6325073242188	1214.823608398438	75.27805328369126	-417.7184753417969	1229.20263671875	176.4538269042967	-12.13528156280517	921.3915405273438	-22.00037956237799	-152.5517120361328	721.3466796875	103.3691177368163	-201.2061157226563	762.2575073242188	203.7713165283202	-164.2586364746093	521.318359375	-156.7987976074219	-344.86328125	350.9349365234375	86.28115844726555	-229.6170349121094	475.3022766113281	-116.0290222167969	-452.3400573730469	334.1248168945312	118.1336441040038	-29.14018058776853	1203.725830078125	-183.4359436035157	28.45915031433108	1243.026000976562	-209.6820373535157	-10.38453006744388	1221.862548828125	267.8083801269531	203.1964111328125	1053.339721679688	220.2593231201172	179.0592193603516	1022.9736328125	-101.296989440918	81.16767120361328	1429.515869140625	-25.62176704406746	0.4182870090007845	1556.758666992188	-51.561134338379	5.096251964569078	1584.816528320312	105.1689376831054	-113.212890625	1512.88232421875	165.5041961669921	-100.0388641357422	1510.782592773438	-119.1280517578126	-94.23764801025391	1416.072998046875	7.146861076354882	290.1911926269531	1041.23193359375	-72.56040191650392	293.4926452636719	1017.831665039062	144.0189361572265	
